<?xml version="1.0" encoding="UTF-8" standalone="no"?><!DOCTYPE svg PUBLIC "-//W3C//DTD SVG 1.1//EN" "http://www.w3.org/Graphics/SVG/1.1/DTD/svg11.dtd"><svg width="100%" height="100%" viewBox="0 0 515 515" version="1.1" xmlns="http://www.w3.org/2000/svg" xmlns:xlink="http://www.w3.org/1999/xlink" xml:space="preserve" xmlns:serif="http://www.serif.com/" style="fill-rule:evenodd;clip-rule:evenodd;stroke-linejoin:round;stroke-miterlimit:2;"><g><circle cx="257.194" cy="257.194" r="257.194" style="fill:#121212;"/><g id="Logo-core" serif:id="Logo core"><path d="M285.258,164.402c-0,-0 -19.017,-8.03 -11.833,-27.328c0,-0 4.508,-13.382 20.848,-14.932c0,-0 3.381,-0.423 5.353,0.563c0,0 4.226,3.381 6.057,4.508c0,0 2.32,1.952 2.578,2.543c0.258,0.591 0.997,2.216 2.917,2.991c0,0 5.766,1.167 5.535,5.09c-0.231,3.924 -0.046,3.877 -0.046,3.877c-0,0 2.775,-0.376 2.959,5.875c0,0 4.01,2.075 2.568,4.909c-0,0 -2.682,4.7 -6.919,7.946c-0,-0 -1.353,5.373 -0.091,9.376c0,-0 21.804,0.317 26.942,3.653c0,-0 5.801,0.819 7.694,0.098c-0,-0 11.089,-2.975 19.293,-1.262l1.796,0.124c0,-0 7.059,-6.658 20.582,-16.236c0,-0 10.56,-9.398 13.877,-13.509c0,0 1.132,-0.793 1.074,-3.505c-0,0 0.692,-13.386 -0.923,-18.694c-0,-0 -1.212,-3.866 2.423,-1.962c0,0 3.145,8.511 3.635,8.02c0,0 2.654,2.539 4.789,-5.193c0,0 2.99,-12.003 5.154,-14.816c-0,-0 2.524,-2.092 2.235,2.38c0,-0 -2.668,8.366 -2.74,10.602c-0,-0 0.793,2.019 2.596,-1.731c0,-0 3.246,-7.14 6.203,-9.592c-0,-0 3.389,-1.371 2.452,2.452c-0,-0 -5.409,8.438 -5.698,9.953c0,-0 0.361,1.731 1.226,0.865c0.866,-0.865 5.337,-6.347 8.078,-6.419c0,0 2.236,0.361 -1.082,4.111c-3.317,3.751 -5.481,6.563 -5.481,6.563c-0,0 -1.869,3.219 1.521,1.488c-0,-0 4.688,-3.967 7.356,-3.967c0,0 1.731,1.298 -2.596,5.049c-0,-0 -8.15,7.14 -12.91,13.415c-0,-0 -12.691,10.87 -13.593,14.476c0,0 -20.385,31.238 -33.486,33.492c0,-0 -12.312,6.576 -29.892,9.168l-6.649,0.789c0,-0 3.926,28.064 -0.201,59.979c-0,0 -3.852,23.936 -7.979,30.814c0,0 -1.792,3.208 3.843,7.377c-0,0 28.441,27.064 32.292,40.27c0,-0 10.64,18.945 -18.886,26.045c0,-0 -14.639,5.618 -41.967,9.562c-0,-0 -23.947,3.803 -32.54,15.354c-0,0 -14.201,17.588 -20.963,23.11c0,-0 -7.663,-5.194 -2.254,-19.721c0,-0 9.361,-13.001 11.298,-24.975c0,0 0.704,-8.099 11.093,-3.873c0,-0 5.459,6.515 17.256,-0.177c0,0 12.632,-6.545 19.112,-12.18c-0,0 7.325,-6.621 11.692,-7.607c-0,0 2.394,-0.704 -4.649,-4.648c-0,-0 -9.718,-4.777 -16.705,-9.398c0,0 -2.663,-1.656 -10.939,4.683c-8.275,6.339 -26.236,18.664 -30.814,20.425c0,0 -16.628,10.857 -27.369,20.365c-0,0 -21.832,16.087 -29.755,24.671c-0,-0 -8.364,6.823 -10.785,11.005c-0,-0 -3.135,5.309 -7.22,8.408c0,-0 -12.691,15.38 -14.1,20.311c0,-0 -6.163,11.621 -10.741,-0.352c0,-0 -4.402,-12.502 2.994,-23.595c-0,-0 7.781,-13.204 14.965,-17.008c0,0 3.24,-0.563 4.931,-0.563l4.085,-6.057l-31.333,0.081l39.618,-10.741c0,-0 6.867,-10.213 9.509,-12.15l-44.373,0.352l56.346,-15.143c0,0 9.151,-9.768 12.847,-12.834l-48.049,0.552l-0.176,-6.867l63.389,-12.678l6.528,-11.688l-25.074,0.281c0,0 3.381,-6.651 1.55,-15.072l35.498,-6.591l4.982,-12.421l-89.967,5.778l-0.55,-6.603l96.019,-19.259c0,-0 2.512,-8.604 1.385,-12.713l-72.936,6.555l3.026,-12.656l69.057,-13.481c-0,0 -3.026,-4.952 -4.127,-9.354c-0,-0 -30.212,3.13 -38.576,1.589c-0,-0 -18.709,10.565 -28.393,14.747c-0,-0 -5.283,1.76 -10.345,6.603c-0,-0 -2.691,0.588 -2.803,4.87c-0,0 -2.367,10.142 -3.156,14.312c0,-0 -2.93,1.24 -3.719,-4.395c0,-0 -1.239,-6.649 -2.479,-6.649c-1.239,0 -21.637,11.945 -21.637,11.945c0,0 -3.042,0.226 -0.563,-5.747c-0,0 -5.86,0.113 0.563,-5.86c6.424,-5.972 22.764,-14.199 22.764,-14.199c0,-0 7.86,-5.034 9.1,-6.161c1.239,-1.127 -0.226,-1.465 -0.226,-1.465l-13.185,1.465c0,0 5.41,-6.812 4.17,-13.41c-0,0 30.32,-4.484 31.728,-4.308c0,-0 13.713,-11.285 31.744,-18.187l0.423,-2.254l-64.657,6.761l0.176,-6.443l106.867,-21.891c-0,0 0.283,-1.757 -0.461,-2.126Z" style="fill:#c5ff4b;"/><circle cx="369.383" cy="106.434" r="24.37" style="fill:#c5ff4b;"/><g><path d="M136.881,196.494l0.282,3.663l28.455,-2.395l-0.282,-8.311l-28.455,7.043Z" style="fill:#c5ff4b;"/><path d="M86.43,231.599l0.144,5.842l70.852,-7.086l6.339,-14.263l-77.335,15.507Z" style="fill:#c5ff4b;"/><path d="M55.38,237.423l16.791,-3.494l0.113,6.649l-17.016,1.353l0.112,-4.508Z" style="fill:#c5ff4b;"/><path d="M140.374,248.744l-70.291,14.931l0.14,2.395l69.869,-5.212l0.282,-12.114Z" style="fill:#c5ff4b;"/><path d="M161.251,277.754l-0.225,7.776l-21.524,0.564l0.113,-3.607l21.636,-4.733Z" style="fill:#c5ff4b;"/><path d="M212.309,299.436c0,0 0,8.593 -1.549,11.974l-56.346,3.521l-0.282,-2.817l58.177,-12.678Z" style="fill:#c5ff4b;"/><path d="M127.438,345.679l38.653,-1.465l0.113,-8.903l-38.766,10.368Z" style="fill:#c5ff4b;"/><path d="M237.447,388.329l-10.097,8.149l10.458,0.145l-0.361,-8.294Z" style="fill:#c5ff4b;"/></g></g></g><g id="Logo-core1" serif:id="Logo core"></g></svg>